<?xml version="1.0" encoding="UTF-8"?><svg id="a" xmlns="http://www.w3.org/2000/svg" viewBox="0 0 197.42 77.14"><defs><style>.b{fill:none;stroke:#37745b;stroke-miterlimit:10;}.c{fill:#37745b;}.d{fill:#1c2626;}</style></defs><g><path class="c" d="M106.14,41.18v14.96h-8.29v-14.96h-12.41v-7.21h29.37c4.6,0,7.33-.67,9.2-2V.49h8.29V56.08h-8.29v-17.32c-1.88,1.63-5.21,2.42-11.44,2.42h-6.42Zm-18.53-12.84V1.46h13.99v7.27h-5.75v12.41h7.02V1.46h16.11v7.27h-7.87v12.41h8.54v7.21h-32.03Z"/><path class="c" d="M168.86,52.38h-24.22V1.46h27.31v7.21h-19.07V45.18h17.62c4.48,0,7.75-.73,9.51-2.24V.49h8.29V22.53h8.36v7.14h-8.36v26.4h-8.29v-6.42c-1.82,1.82-5.87,2.72-11.14,2.72Z"/></g><g><path class="d" d="M92.46,72.51l-1.01,1.43c-1.12-.67-1.78-1.76-2.19-3.07-.45,1.46-1.19,2.65-2.37,3.36l-1.11-1.39c1.89-1.15,2.58-3.46,2.58-5.66v-2.17h1.78v2.1c0,2.09,.56,4.23,2.31,5.39Zm1.99-8.4v12.12h-1.72v-6.47h-1.61v-1.5h1.61v-4.15h1.72Zm2.65,12.69h-1.75v-12.9h1.75v12.9Z"/><path class="d" d="M102.68,68.63c-.56,1.29-1.55,2.27-3.03,2.77l-.97-1.46c2.17-.71,3.03-2.44,3.03-4.19v-1.16h1.88v1.32c0,1.56,.87,3.05,2.9,3.7l-.97,1.43c-1.36-.45-2.3-1.29-2.84-2.41Zm6.5,5.67c0,1.57-1.67,2.49-4.36,2.49s-4.37-.92-4.37-2.49,1.67-2.48,4.37-2.48,4.36,.92,4.36,2.48Zm-1.83,0c0-.71-.88-1.05-2.52-1.05s-2.54,.35-2.54,1.05,.84,1.06,2.54,1.06,2.52-.34,2.52-1.06Zm3.4-5.88h-1.71v3.11h-1.85v-7.62h1.85v2.98h1.71v1.53Z"/><path class="d" d="M120.15,64.11v12.12h-1.72v-6.08h-1.01c-.17,2.54-1.21,4.03-2.79,4.03-1.71,0-2.79-1.76-2.79-4.69s1.08-4.68,2.79-4.68c1.53,0,2.56,1.32,2.77,3.84h1.02v-4.54h1.72Zm-4.4,5.38c0-1.97-.41-2.94-1.12-2.94s-1.12,.97-1.12,2.94,.41,2.96,1.12,2.96,1.12-.92,1.12-2.96Zm7.05,7.3h-1.75v-12.9h1.75v12.9Z"/><path class="d" d="M139,76.7h-9.4v-3.42h7.23v-.73h-7.26v-1.34h1.76v-.91c-1.13,.01-2.2,.01-3.26,.01l-.22-1.39c1.34,0,2.69-.01,4.15-.03,1.44-.01,2.84-.08,4.23-.21l.1,1.26c-1.06,.13-2.07,.21-3.14,.27v.99h5.46v3.35h-7.23v.77h7.58v1.37Zm-9.86-8.43h-.64v-3.85h3.31v1.4h-1.48v1.04c.52-.04,1.04-.07,1.61-.22l.13,1.42c-1.06,.21-1.89,.22-2.91,.22Zm3.25,0v-3.85h3.38v1.4h-1.57v1.06h1.64v1.39h-3.45Zm4.41,2.44v-6.82h1.85v6.82h-1.85Z"/><path class="d" d="M155.38,71.18h-11.63v-1.47h4.31v-2.38h1.85v2.38h5.46v1.47Zm-.77,4.15l-.67,1.43c-2.14-.29-3.63-1.11-4.41-2.28-.8,1.18-2.28,1.99-4.43,2.28l-.67-1.43c2.87-.34,4.16-1.71,4.16-3.01v-.38h1.85v.38c0,1.33,1.29,2.67,4.17,3.01Zm-2.45-9.38h-7.09v-1.47h8.94v1.02c0,1.01,0,2.12-.32,3.52l-1.82-.18c.27-1.18,.28-2.04,.29-2.89Z"/><path class="d" d="M168.24,71.95h-11.65v-1.47h11.65v1.47Zm-10.49-5.01c0-1.64,1.86-2.66,4.66-2.66s4.68,1.02,4.68,2.66-1.86,2.66-4.68,2.66-4.66-1.02-4.66-2.66Zm9.19,8.17v1.47h-8.94v-3.75h1.85v2.28h7.09Zm-7.28-8.17c0,.8,1.01,1.19,2.76,1.19s2.77-.39,2.77-1.19-1.02-1.21-2.77-1.21-2.76,.42-2.76,1.21Z"/><path class="d" d="M172.97,70.09v-5.41h6.15v5.41h-6.15Zm4.55,4.5l.25,1.46c-1.06,.38-2.06,.43-3.33,.43h-.71v-5.07h1.79v3.56c.69-.06,1.34-.17,2-.38Zm-2.75-8.46v2.52h2.52v-2.52h-2.52Zm9.01,5.41v1.32h-6.46v-1.32h2.35v-.91h1.79v.91h2.31Zm-.74,3.46c0,1.12-1.02,1.82-2.49,1.82s-2.49-.7-2.49-1.82,1.02-1.82,2.49-1.82,2.49,.7,2.49,1.82Zm-1.64,0c0-.39-.35-.57-.85-.57s-.85,.18-.85,.57,.36,.57,.85,.57,.85-.2,.85-.57Zm3.05-6.89h-1.71v2.2h-1.85v-6.4h1.85v2.69h1.71v1.51Z"/><path class="d" d="M192.81,71.78l.18,1.53c-1.95,.34-3.71,.42-5.95,.42h-1.11v-8.64h6.02v1.5h-4.17v5.6c1.83-.01,3.36-.13,5.03-.41Zm2.73-1.6v6.64h-1.85v-12.93h1.85v4.76h1.88v1.53h-1.88Z"/></g><circle class="b" cx="38.57" cy="38.57" r="38.07"/><path class="c" d="M65.14,42.59c-.78,2.31-2.19,4.8-4.21,7.46-2.02,2.66-4.75,5.23-8.2,7.7-3.44,2.47-7.69,4.62-12.75,6.43-5.05,1.81-11.02,3.03-17.91,3.65l-6.19-3.09-3.71-10.39c2.1-.21,4.1-.44,6-.71,1.9-.27,3.69-.55,5.38-.83l-2.1-1.05-5.14-8.85c.66-.16,1.18-.31,1.55-.43l-1.49-.74-4.39-10.27c2.06-.21,3.96-.47,5.69-.8,1.73-.33,3.36-.68,4.89-1.05l-2.85-1.36-6.13-8.54c1.69-.7,3.25-1.37,4.67-2.01,1.42-.64,2.97-1.39,4.64-2.26s3.34-1.81,5.01-2.85,3.19-2.12,4.55-3.28l11.08,.74,3.46,1.73,7.49-.68,6.19,3.09v8.6c-.91,1.53-1.96,2.99-3.16,4.39-1.2,1.4-2.52,2.74-3.96,4.02l5.38-.49,6.19,3.09v8.78Zm-16.58-10.39c.33-.37,.66-.76,.99-1.18,.33-.41,.6-.76,.8-1.05l-5.32-.87c1.86-1.4,3.53-2.9,5.01-4.49,1.48-1.59,2.74-3.27,3.77-5.04v-7.8l-13.36,1.18c.78-.83,1.42-1.61,1.92-2.35l-9.71-.74c-1.73,1.44-3.63,2.78-5.69,4.02-2.06,1.24-4.04,2.31-5.94,3.22-1.9,.91-4.06,1.88-6.5,2.91l5.38,7.49c1.11-.53,2.12-1.03,3.03-1.49,.45,.29,1.02,.7,1.7,1.24,.68,.54,1.41,1.15,2.2,1.86-2.02,.62-4.21,1.18-6.56,1.67-2.35,.49-4.83,.91-7.43,1.24l3.84,9.03c2.27-.53,4.69-1.26,7.27-2.16,2.58-.91,5.08-1.87,7.52-2.88,2.43-1.01,4.54-1.91,6.31-2.69-2.27,1.77-4.61,3.29-7.02,4.55s-4.64,2.29-6.68,3.09c-2.04,.8-4.32,1.6-6.84,2.38l4.45,7.67c2.52-.78,4.78-1.63,6.81-2.54,1.07,.66,2.29,1.59,3.65,2.78-2.64,.91-5.58,1.66-8.82,2.26-3.24,.6-6.69,1.06-10.36,1.39l3.28,9.16c6.68-.58,12.49-1.74,17.42-3.5,4.93-1.75,9.07-3.84,12.44-6.25,3.36-2.41,6.04-4.93,8.04-7.55,2-2.62,3.39-5.06,4.18-7.33v-8.04l-9.78,.8Zm-5.88-11.38c-.78,.78-1.69,1.55-2.72,2.29s-2.21,1.46-3.53,2.16c-.66-.58-1.36-1.16-2.1-1.76-.74-.6-1.49-1.18-2.23-1.76l10.58-.93Zm5.38,19.92c-.99,2.02-3.2,4.06-6.62,6.13-.66-.62-1.35-1.21-2.07-1.76-.72-.56-1.43-1.04-2.13-1.45,.33-.25,.72-.55,1.18-.9,.45-.35,1.03-.79,1.73-1.33l7.92-.68Z"/></svg>