<svg width="20" height="20" viewBox="0 0 20 20" fill="none" xmlns="http://www.w3.org/2000/svg">
<path fill-rule="evenodd" clip-rule="evenodd" d="M7.877 13.2062C4.033 13.2062 0.75 13.7872 0.75 16.1152C0.75 18.4422 4.012 19.0452 7.877 19.0452C11.721 19.0452 15.004 18.4632 15.004 16.1362C15.004 13.8092 11.742 13.2062 7.877 13.2062Z" stroke="#37745B" stroke-width="1.5" stroke-linecap="round" stroke-linejoin="round"/>
<path fill-rule="evenodd" clip-rule="evenodd" d="M7.87659 9.88588C10.4126 9.88588 12.4446 7.85288 12.4446 5.31788C12.4446 2.78188 10.4126 0.749878 7.87659 0.749878C5.34159 0.749878 3.30859 2.78188 3.30859 5.31788C3.30859 7.85288 5.34159 9.88588 7.87659 9.88588Z" stroke="#37745B" stroke-width="1.5" stroke-linecap="round" stroke-linejoin="round"/>
<path d="M17.2041 6.66907V10.6791" stroke="#37745B" stroke-width="1.5" stroke-linecap="round" stroke-linejoin="round"/>
<path d="M19.2492 8.67395H15.1592" stroke="#37745B" stroke-width="1.5" stroke-linecap="round" stroke-linejoin="round"/>
</svg>
