<?xml version="1.0" encoding="UTF-8"?><svg id="a" xmlns="http://www.w3.org/2000/svg" viewBox="0 0 183.56 59.08"><defs><style>.b{fill:#fff;}.c{fill:#37745b;}</style></defs><circle class="c" cx="29.54" cy="29.54" r="29.54"/><g><path class="c" d="M93.05,42.27v14.96h-8.29v-14.96h-12.41v-7.21h29.37c4.6,0,7.33-.67,9.2-2V1.58h8.29V57.16h-8.29v-17.32c-1.88,1.63-5.21,2.42-11.44,2.42h-6.42Zm-18.53-12.84V2.55h13.99v7.27h-5.75v12.41h7.02V2.55h16.11v7.27h-7.87v12.41h8.54v7.21h-32.03Z"/><path class="c" d="M155.77,53.47h-24.22V2.55h27.31v7.21h-19.07V46.27h17.62c4.48,0,7.75-.73,9.51-2.24V1.58h8.29V23.62h8.36v7.14h-8.36v26.4h-8.29v-6.42c-1.82,1.82-5.87,2.72-11.14,2.72Z"/></g><path class="b" d="M50.16,32.66c-.61,1.79-1.7,3.72-3.26,5.79-1.57,2.06-3.69,4.06-6.36,5.98-2.67,1.92-5.97,3.58-9.89,4.99-3.92,1.41-8.55,2.35-13.9,2.83l-4.8-2.4-2.88-8.07c1.63-.16,3.18-.34,4.66-.55,1.47-.21,2.86-.42,4.18-.65l-1.63-.82-3.99-6.87c.51-.13,.91-.24,1.2-.34l-1.15-.58-3.41-7.97c1.6-.16,3.07-.37,4.42-.62,1.34-.26,2.61-.53,3.79-.82l-2.21-1.06-4.75-6.62c1.31-.54,2.52-1.06,3.62-1.56,1.1-.5,2.3-1.08,3.6-1.75s2.59-1.41,3.89-2.21,2.47-1.65,3.53-2.54l8.59,.58,2.69,1.34,5.81-.53,4.8,2.4v6.67c-.7,1.18-1.52,2.32-2.45,3.41-.93,1.09-1.95,2.13-3.07,3.12l4.18-.38,4.8,2.4v6.82Zm-12.87-8.07c.26-.29,.51-.59,.77-.91,.26-.32,.46-.59,.62-.82l-4.13-.67c1.44-1.09,2.74-2.25,3.89-3.48,1.15-1.23,2.13-2.54,2.93-3.91v-6.05l-10.37,.91c.61-.64,1.1-1.25,1.49-1.82l-7.54-.58c-1.34,1.12-2.82,2.16-4.42,3.12-1.6,.96-3.14,1.79-4.61,2.5-1.47,.71-3.15,1.46-5.04,2.26l4.18,5.81c.86-.42,1.65-.8,2.35-1.15,.35,.22,.79,.54,1.32,.96,.53,.42,1.1,.9,1.71,1.44-1.57,.48-3.26,.91-5.09,1.3-1.83,.38-3.75,.7-5.76,.96l2.98,7.01c1.76-.42,3.64-.98,5.64-1.68,2-.7,3.94-1.45,5.83-2.23,1.89-.78,3.52-1.48,4.9-2.09-1.76,1.38-3.58,2.55-5.45,3.53s-3.6,1.78-5.18,2.4c-1.58,.62-3.35,1.24-5.3,1.85l3.46,5.95c1.95-.61,3.71-1.26,5.28-1.97,.83,.51,1.78,1.23,2.83,2.16-2.05,.7-4.33,1.29-6.84,1.75-2.51,.46-5.19,.82-8.04,1.08l2.54,7.11c5.18-.45,9.69-1.35,13.51-2.71,3.82-1.36,7.04-2.98,9.65-4.85,2.61-1.87,4.69-3.82,6.24-5.86,1.55-2.03,2.63-3.93,3.24-5.69v-6.24l-7.58,.62Zm-4.56-8.83c-.61,.61-1.31,1.2-2.11,1.78s-1.71,1.14-2.74,1.68c-.51-.45-1.06-.9-1.63-1.37-.58-.46-1.15-.92-1.73-1.37l8.21-.72Zm4.18,15.46c-.77,1.57-2.48,3.15-5.14,4.75-.51-.48-1.05-.94-1.61-1.37-.56-.43-1.11-.81-1.66-1.13,.26-.19,.56-.42,.91-.7,.35-.27,.8-.62,1.34-1.03l6.14-.53Z"/></svg>